<?xml version="1.0" encoding="UTF-8" standalone="no"?>
<!-- Created with Inkscape (http://www.inkscape.org/) -->

<svg
   xmlns:dc="http://purl.org/dc/elements/1.1/"
   xmlns:cc="http://creativecommons.org/ns#"
   xmlns:rdf="http://www.w3.org/1999/02/22-rdf-syntax-ns#"
   xmlns:svg="http://www.w3.org/2000/svg"
   xmlns="http://www.w3.org/2000/svg"
   version="1.2"
   width="93.065086"
   height="154.629"
   id="svg2">
  <metadata
     id="metadata3241">
    <rdf:RDF>
      <cc:Work
         rdf:about="">
        <dc:format>image/svg+xml</dc:format>
        <dc:type
           rdf:resource="http://purl.org/dc/dcmitype/StillImage" />
        <dc:title></dc:title>
      </cc:Work>
    </rdf:RDF>
  </metadata>
  <defs
     id="defs3239" />
  <g
     id="Calque_1">
    <g
       id="main_pleine_1_">
      <path
         d="m 71.616,112.159 c 0,16.098 -13.049,29.146 -29.146,29.146 -16.096,0 -29.147,-13.049 -29.147,-29.146 0,-16.097 13.051,-29.146 29.147,-29.146 16.097,0 29.146,13.049 29.146,29.146 z"
         id="path3233" />
      <path
         d="m 92.847,51.875 c -0.368,-1.116 -1.177,-2.031 -2.235,-2.537 -7.32,-3.482 -13.54,-3.66 -18.482,-0.527 -0.176,0.112 -0.327,0.247 -0.498,0.364 V 25.893 c 0,-8.745 -6.587,-13.463 -12.783,-13.463 -1.315,0 -2.633,0.222 -3.896,0.632 v -2.02 C 54.952,4.746 49.895,0 43.189,0 37.878,0 33.722,2.858 32.166,7.171 31.02,6.793 29.802,6.586 28.54,6.586 c -5.926,0 -12.054,4.566 -12.054,12.206 V 32.994 C 15.269,32.531 13.991,32.247 12.685,32.205 9.527,32.103 6.319,33.394 3.887,35.75 1.418,38.14 0,41.411 0,44.724 v 67.435 c 0,23.418 19.053,42.47 42.47,42.47 23.419,0 42.471,-19.052 42.471,-42.47 l 1.538,-38.642 c 0.003,-5.625 4.394,-15.086 6.085,-18.273 0.548,-1.035 0.653,-2.254 0.283,-3.369 z m -14.974,21.473 -1.539,38.64 C 76.331,130.83 61.142,146.021 42.47,146.021 23.799,146.021 8.609,130.83 8.609,112.16 V 44.724 c 0,-0.993 0.461,-2.012 1.267,-2.789 0.755,-0.733 1.703,-1.153 2.533,-1.126 1.83,0.059 4.078,2.22 4.078,3.916 v 30.292 c 0,2.378 1.926,4.306 4.305,4.306 2.377,0 4.303,-1.928 4.303,-4.306 V 18.792 c 0,-2.639 2.063,-3.597 3.446,-3.597 0.537,0 1.304,0.131 1.899,0.754 0.689,0.719 1.054,1.963 1.054,3.596 v 52.082 c 0,2.378 1.929,4.306 4.306,4.306 2.377,0 4.303,-1.928 4.303,-4.306 V 11.043 c 0,-2.198 2.159,-2.435 3.088,-2.435 0.739,0 3.154,0.177 3.154,2.435 v 60.045 c 0,2.379 1.927,4.305 4.304,4.305 2.378,0 4.305,-1.926 4.305,-4.305 V 25.893 c 0,-4.504 2.981,-4.854 3.896,-4.854 1.926,0 4.175,1.271 4.175,4.854 v 54.235 c 0,2.378 1.927,4.304 4.305,4.304 2.378,0 4.304,-1.926 4.304,-4.304 V 69.902 c 0.006,-2.754 0.954,-11.203 5.117,-13.827 1.517,-0.956 3.571,-1.072 6.071,-0.447 -2.105,4.65 -4.949,11.968 -4.949,17.72 z"
         id="path3235" />
    </g>
  </g>
</svg>
